inDegrees=no
num_controls=7
num_derivatives=13
num_iterations=129
num_multipliers=7
num_parameters=0
num_slacks=7
num_states=26
objective=4.385122
objective_accelerations=0.103203
objective_balance=0.016349
objective_effort=0.220999
objective_height=3.994445
objective_ligament=0.050127
solver_duration=1296.514438
status=Solve_Succeeded
success=true
DataType=double
version=3
OpenSimVersion=4.4-2022-07-23-0e9fedc
endheader
time	/jointset/ground_pelvis/pelvis_tilt/value	/jointset/ground_pelvis/pelvis_tx/value	/jointset/ground_pelvis/pelvis_ty/value	/jointset/hip_l/hip_flexion_l/value	/jointset/hip_l/hip_adduction_l/value	/jointset/hip_l/hip_rotation_l/value	/jointset/back/lumbar_extension/value	/jointset/patellofemoral_l/patellar_flexion_l/value	/jointset/knee_l/knee_flexion_l/value	/jointset/knee_l/knee_adduction_l/value	/jointset/knee_l/knee_rotation_l/value	/jointset/ankle_l/ankle_angle_l/value	/jointset/subtalar_l/subtalar_angle_l/value	/jointset/ground_pelvis/pelvis_tilt/speed	/jointset/ground_pelvis/pelvis_tx/speed	/jointset/ground_pelvis/pelvis_ty/speed	/jointset/hip_l/hip_flexion_l/speed	/jointset/hip_l/hip_adduction_l/speed	/jointset/hip_l/hip_rotation_l/speed	/jointset/back/lumbar_extension/speed	/jointset/patellofemoral_l/patellar_flexion_l/speed	/jointset/knee_l/knee_flexion_l/speed	/jointset/knee_l/knee_adduction_l/speed	/jointset/knee_l/knee_rotation_l/speed	/jointset/ankle_l/ankle_angle_l/speed	/jointset/subtalar_l/subtalar_angle_l/speed	/forceset/tau_hip_flexion_l	/forceset/tau_hip_adduction_l	/forceset/tau_hip_rotation_l	/forceset/tau_knee_flexion_l	/forceset/tau_ankle_angle_l	/forceset/tau_subtalar_angle_l	/forceset/tau_lumbar_extension	lambda_cid13_p0	lambda_cid13_p1	lambda_cid13_p2	lambda_cid13_p3	lambda_cid13_p4	lambda_cid13_p5	lambda_cid14_p0	/jointset/ground_pelvis/pelvis_tilt/accel	/jointset/ground_pelvis/pelvis_tx/accel	/jointset/ground_pelvis/pelvis_ty/accel	/jointset/hip_l/hip_flexion_l/accel	/jointset/hip_l/hip_adduction_l/accel	/jointset/hip_l/hip_rotation_l/accel	/jointset/back/lumbar_extension/accel	/jointset/patellofemoral_l/patellar_flexion_l/accel	/jointset/knee_l/knee_flexion_l/accel	/jointset/knee_l/knee_adduction_l/accel	/jointset/knee_l/knee_rotation_l/accel	/jointset/ankle_l/ankle_angle_l/accel	/jointset/subtalar_l/subtalar_angle_l/accel	gamma_cid13_p0	gamma_cid13_p1	gamma_cid13_p2	gamma_cid13_p3	gamma_cid13_p4	gamma_cid13_p5	gamma_cid14_p0
0.5	0.0454816405627847	0.01248602198333358	0.8991981221076746	0.4185264931847527	-0.3265226973675331	-0.2054121650988353	-0.7341054863228464	0.4965493145968954	0.4965493145968906	-0.1730111183466452	-0.1745271076601491	0.06351940096963167	-0.01136898350577302	0.2438350183920177	-0.08649722125662736	-0.06534056830699761	0.2217033722942217	-0.06537349350380667	0.2490431411003448	-0.8531273644986047	0.6333928936925364	0.6333928936925313	-0.0009244415263511636	-1.165493904563985e-05	0.2012600994312424	-0.005579534459384042	-0.1526503188432392	0.01939656237324319	0.0002922355457636785	-0.1760773360272237	0.06923223468167186	0.0407192202404667	0.2514704520416471	-23.04115341548287	-16.74384235913846	5.749010210432726	-1.55915228592137	-708.1566652145026	-85.0491353605892	-23.06802482222429	-0.007462638022400774	0.2379178282522518	0.02613618362552821	-0.6536719954016134	0.1361423036781592	-0.2387966032863592	0.96407077681153	-0.6618695003050532	-0.6618695003050508	-0.03051806683077591	0.004648789696746368	0.002152438679310316	0.1398669591587865	1.503066132329446e-08	-3.983616245012658e-08	-2.688984218502739e-08	-1.909063757075029e-08	1.786279975334309e-08	5.338869977078234e-10	1.56892879715389e-09
0.51	0.0479191270882966	0.01163303007604996	0.8985461380715386	0.4207107691616724	-0.3271695669777432	-0.2029342617841863	-0.7425872512975542	0.5028493871359988	0.5028493871359939	-0.1730217431198145	-0.1745272351406049	0.06553182556328457	-0.01141780141036785	0.2436352129490231	-0.08409164581191692	-0.06504021957600345	0.215106383788396	-0.06399519365376997	0.2464999288856274	-0.8431177058027336	0.6265244469155413	0.6265244469155364	-0.00120031735940583	-1.3152472086564e-05	0.2011927676122269	-0.004187746558848596	-0.1550824623415942	0.02017698100105405	0.0004477660619375435	-0.1770452221947522	0.06800271410283452	0.04103951108378237	0.2548392214841523	-23.49355773337338	-16.7998064652728	5.753448534354606	-1.461658249319706	-709.3878379290659	-84.98489842519332	-22.98030536887143	-0.03029965371958402	0.2433006590632504	0.03439094950840094	-0.669526556662321	0.139467791641015	-0.2677213380777859	1.035602112275422	-0.7139077574026396	-0.7139077574026196	-0.02610147504244682	-0.002450342782347317	-0.01598288749925425	0.1382889599699912	1.646779893238529e-08	-3.755814098959e-08	-3.167501447427249e-08	-1.98144637334965e-08	2.021395665815926e-08	3.414167374359543e-09	2.487920283209092e-09
0.52	0.05035380352811739	0.01080437857450942	0.8978976388690469	0.4228277123978363	-0.3278024947962515	-0.2004829181531871	-0.7509656819460437	0.509077860109133	0.5090778601091338	-0.1730351224780257	-0.1745273578599811	0.06754261545968669	-0.01145281058506318	0.2432730012547851	-0.08162914010801312	-0.06464360157811104	0.2082368241429917	-0.06258513516475728	0.2437312043703778	-0.8324604992548164	0.6190729804983116	0.6190729804983072	-0.00147535853243598	-1.070272424139714e-05	0.200933159980921	-0.00281778847954732	-0.1575146058399194	0.02095739962888168	0.0006032965780854586	-0.1780131083622578	0.06677319352401009	0.04135980192712082	0.2582079909266701	-23.94998498836403	-16.85515433982544	5.757889374491611	-1.368895477750431	-710.6890007808289	-84.92815906174604	-22.889003247705	-0.03994388827099624	0.2493038800908755	0.04539003700517426	-0.7081862233173759	0.1424940314733692	-0.2838990633927497	1.093580347220863	-0.7784734283519704	-0.7784734283519672	-0.03035113482586814	0.005438245873973895	-0.03630272377885339	0.1355009949119351	1.780637148816058e-08	-3.52004283713462e-08	-3.628650425535991e-08	-2.043368642421814e-08	2.236311622990929e-08	6.236360234280378e-09	3.381782270570969e-09
0.53	0.05278404924881835	0.01000061698444015	0.8972535839842017	0.4248746694721928	-0.3284211579461812	-0.1980604004748896	-0.7592343774133908	0.5152289913630118	0.5152289913630096	-0.1730511854770155	-0.1745274566086986	0.06954986855257846	-0.01147421543720143	0.2427503098134486	-0.07911552289765716	-0.06415127732405428	0.2011124103346579	-0.06114319687190842	0.2407353292849781	-0.8211790081720848	0.6110606910907049	0.6110606910907096	-0.001736031106339139	-9.033346577601832e-06	0.2004854506857122	-0.001467797545718412	-0.1598048187463885	0.02168834711591629	0.0007457916519301572	-0.1790182158693189	0.06557602703573297	0.0416567068902083	0.2614390574176644	-24.39169940622886	-16.9025441914019	5.760630064704366	-1.263757699840572	-711.8972541074932	-84.87022466010379	-22.79436179346261	-0.06230567963660452	0.2535347408091405	0.05357302802838316	-0.7208941651708156	0.1456978506451314	-0.3129793475307392	1.160371395436846	-0.8264943452846391	-0.8264943452832884	-0.02375215172290639	-0.002473102004090609	-0.0538051424118518	0.1340653838341671	1.938988769678895e-08	-3.274865556193484e-08	-4.15318970541368e-08	-2.124437225059754e-08	2.49007226681367e-08	9.419646276033078e-09	4.378475859008056e-09
0.54	0.05520829327358745	0.009222220386334098	0.8966149362235815	0.4268491173673493	-0.3290252708886847	-0.1956689510707308	-0.7673872703885838	0.5212972221931548	0.5212972221931497	-0.1730698205683674	-0.1745275395407738	0.07155168453051478	-0.01148225693175789	0.242072662069267	-0.07655614171537012	-0.06356217673308905	0.1937349883031399	-0.05967509368088576	0.2375175495428937	-0.8093000008238271	0.6024928957503153	0.6024928957503293	-0.001989777002247505	-7.539397581492676e-06	0.1998457369897061	-0.0001451169632546064	-0.1620950316528404	0.02241929460296148	0.0008882867257300576	-0.180023323376362	0.06437886054746493	0.04195361185331089	0.2646701239086654	-24.83804843784602	-16.94922912152246	5.763380150312488	-1.161165836249578	-713.1837976721192	-84.82000547289576	-22.69664432788909	-0.07093514883991782	0.2584566744770446	0.06474530438686582	-0.7587878679542066	0.1477270111081349	-0.3282799947296665	1.213083600326235	-0.8895746149085483	-0.8895746149085235	-0.02896579922690223	0.005403160140444595	-0.07470360393835383	0.1300389246388996	2.124440539368029e-08	-3.019281615804022e-08	-4.747862936184672e-08	-2.226688963132172e-08	2.786810010757311e-08	1.300243966789763e-08	5.488940580549632e-09
0.55	0.05762498578367425	0.008469630581516513	0.8959826575465523	0.4287486044890055	-0.329614567273754	-0.1933107932581245	-0.7754184462991093	0.5272770955277424	0.5272770955277368	-0.1730908978290512	-0.1745276253547424	0.07354617263166527	-0.0114771922487569	0.2412418728367639	-0.07395563132254014	-0.06287738582802156	0.1861219277277377	-0.05818132242312438	0.2340793387801387	-0.7968438208130931	0.5933930499565737	0.5933930499565823	-0.00222552317463955	-9.028005395268029e-06	0.1990200580257539	0.001151974637007443	-0.1642412208444416	0.02310748113255322	0.00101790678673979	-0.1810583480799776	0.06322679316487162	0.04221916356138322	0.267758943732143	-25.26467508392176	-16.98531839702711	5.763947294602061	-1.054608872505802	-714.3627106638888	-84.76118289226778	-22.59598467384361	-0.09274463320679684	0.2617718454688908	0.07277780760795545	-0.768639220261679	0.1506418102086828	-0.3567881346387778	1.275589271926158	-0.9334989621979373	-0.9334989621988199	-0.02086457215426157	-0.00284430485856819	-0.0912724428665764	0.1286425691384911	2.260881855036328e-08	-2.756996408981913e-08	-5.223535932341938e-08	-2.286584992845361e-08	2.994906645088672e-08	1.602639594337262e-08	6.418518104431838e-09
0.5600000000000001	0.06003265163688212	0.007743230605383237	0.8953577131433819	0.4305707461913207	-0.3301888380208193	-0.1909880568566656	-0.7833223195954324	0.5331633085242793	0.5331633085242713	-0.1731143296606539	-0.1745277099415023	0.07553144946312822	-0.01145933699146921	0.240267330694228	-0.0713181759785078	-0.06209532196130024	0.1782659044351899	-0.05666996608142605	0.2304332673137705	-0.7838394779831691	0.5837608281391942	0.5837608281391968	-0.002460691183378493	-7.293957860974457e-06	0.1980034830520857	0.002412997894017786	-0.1663874100360318	0.02379566766215309	0.00114752684770284	-0.182093372783578	0.06207472578228587	0.04248471526946754	0.2708477635556241	-25.69683082240506	-17.02053829880967	5.764488650292315	-0.9471842281111156	-715.6319141636886	-84.71039514205776	-22.49217451115132	-0.09968573084639476	0.2658456647174673	0.08419989671763038	-0.8073804113833561	0.1512440278955301	-0.369852135452306	1.322716164164365	-0.9960498196361837	-0.9960498196361794	-0.02885016649627109	0.006047691210066231	-0.1128828058816159	0.122825255988546	2.338510625879627e-08	-2.486669682440625e-08	-5.556408646962736e-08	-2.295654172527479e-08	3.0966339478853e-08	1.837974767918015e-08	7.131030991122808e-09
0.5700000000000001	0.0624298552880931	0.007043373236216744	0.8947410702977131	0.432313181593321	-0.3307479003742224	-0.1887028246390318	-0.7910934743930917	0.5389506193621849	0.5389506193621805	-0.1731400531966455	-0.1745277725198917	0.07750562669271401	-0.01142903670137027	0.2391499628324343	-0.06864869139181073	-0.06121736929062581	0.1701850400232248	-0.05514033817161838	0.2265792276661969	-0.7703069592612946	0.5736179041694061	0.5736179041694167	-0.002682643528467769	-5.38564039592174e-06	0.1968006596507482	0.003640428135841917	-0.1683874040796708	0.02444077030875129	0.001265513805507215	-0.1831366502427012	0.06095045164300796	0.04272472499856937	0.2737858115617202	-26.11329531439093	-17.0471799828142	5.763396501760548	-0.8340011401554354	-716.7729293917844	-84.65402543963883	-22.38557766477095	-0.1212764796240828	0.2681862233960944	0.09198094286888844	-0.8138575397674407	0.1541579636940542	-0.3982663147819002	1.38119806955064	-1.035930483421322	-1.035930483420164	-0.01866977430090352	-0.002772271774006685	-0.1286760652625331	0.1217171558147979	2.406361893743676e-08	-2.206448196730864e-08	-5.864527695344533e-08	-2.295892319139935e-08	3.185383310123344e-08	2.068819777327443e-08	7.805584941989004e-09
0.58	0.06481518242752723	0.006370347986466711	0.8941336845768761	0.4339737247344678	-0.3312915992902866	-0.1864571501049498	-0.7987267683348626	0.544633997600844	0.5446339976008395	-0.1731679566572594	-0.1745278229498526	0.07946683689668645	-0.01138665905934564	0.2378920283395295	-0.06595175209521556	-0.0602438969948924	0.161887452264678	-0.05359727861498879	0.2225217306037439	-0.7562673068053327	0.5629743082887716	0.5629743082887902	-0.002896676104973398	-4.864274480856421e-06	0.1954100779293027	0.004828468279087081	-0.1703873981232993	0.02508587295535809	0.001383500763258522	-0.1841799277018094	0.05982617750373739	0.04296473472768376	0.2767238595678198	-26.53573543189211	-17.07288639432857	5.762282080554711	-0.7181987671421491	-718.010112542938	-84.60566094443848	-22.27661874784855	-0.1277990570685303	0.2713366066970451	0.1033038217294233	-0.8507250806997145	0.153930357259924	-0.4105436184281689	1.424142910981961	-1.096184201805453	-1.096184201805445	-0.02726621277952745	0.005770300900077787	-0.1504344699032867	0.1149472362727429	2.461479669355678e-08	-1.913340513034256e-08	-6.140409410949956e-08	-2.284629585475623e-08	3.257231168378114e-08	2.293817131071888e-08	8.430703999688046e-09
